<svg width="230" height="99" viewBox="0 0 230 99" fill="none" xmlns="http://www.w3.org/2000/svg">
<g clip-path="url(#clip0_8265_25409)">
<path d="M26.7009 25.8678C40.1192 24.6158 52.0087 34.4863 53.2469 47.9059C54.4852 61.326 44.6028 73.2047 31.1819 74.4292C17.7804 75.6524 5.92181 65.7872 4.6853 52.3866C3.44892 38.9866 13.3019 27.1179 26.7009 25.8678ZM31.5665 71.8484C43.5456 70.4101 52.0882 59.529 50.6427 47.5513C49.1973 35.5731 38.3113 27.0372 26.334 28.4903C14.3674 29.942 5.84096 40.8161 7.28508 52.783C8.72933 64.7517 19.5979 73.2842 31.5665 71.8484Z" fill="white"/>
<path d="M38.5099 37.4577L41.3167 37.4385C41.3712 45.5393 41.3751 53.6407 41.3288 61.7415L38.4265 61.778L38.4222 46.557L38.4089 42.389C36.7878 45.4655 34.9473 48.4231 33.1938 51.4251C32.0824 53.3277 31.0501 55.5107 29.6747 57.2216C29.3466 57.3416 28.9907 57.3507 28.6489 57.2725C28.5372 57.2464 28.3032 57.159 28.2183 57.0912C27.4764 56.4992 20.5004 44.2444 19.3863 42.386C19.6723 44.5897 19.4926 46.9943 19.4914 49.2189L19.4829 61.718L16.5151 61.7285C16.6071 53.6407 16.4619 45.5471 16.5395 37.4575L19.7713 37.4743C21.2083 40.0437 22.7499 42.5594 24.2401 45.0985C25.8238 47.7969 27.3659 50.5279 29.0484 53.166C30.7601 50.0402 32.6742 47.0106 34.5142 43.9571C35.8175 41.7944 37.0496 39.5169 38.5099 37.4577Z" fill="white"/>
<path d="M187.117 43.2311C187.689 43.1926 188.277 43.1775 188.851 43.1877C190.991 43.2259 193.177 44.3701 194.641 45.8869C196.467 47.777 197.315 50.4132 197.253 53.0135C197.192 55.6595 196.2 58.175 194.253 59.9902C192.526 61.5982 190.314 62.4588 187.949 62.3702C185.24 62.2684 183.445 61.1274 181.628 59.1882C181.558 60.298 181.578 61.4208 181.568 62.5332C181.58 64.7423 181.577 66.9513 181.559 69.1617C180.529 69.2634 179.491 69.2543 178.462 69.133C178.63 65.7125 178.481 62.2098 178.483 58.7801C178.483 53.6786 178.563 48.5634 178.449 43.4636L181.513 43.4516C181.453 44.5897 181.468 45.7393 181.451 46.8793C183.111 44.8074 184.496 43.8085 187.117 43.2311ZM188.444 59.6329C190.35 59.2756 191.826 58.4984 192.943 56.854C194.038 55.2174 194.43 53.2104 194.032 51.283C193.691 49.5653 192.673 47.9419 191.178 47.0032C190 46.2643 188.726 46.0613 187.366 46.0998C185.478 46.4567 183.947 47.1292 182.815 48.7753C181.748 50.3258 181.289 52.5336 181.649 54.3776C181.991 56.1485 183.04 57.7029 184.557 58.6784C185.766 59.4386 187.043 59.6577 188.444 59.6329Z" fill="white"/>
<path d="M129.932 35.5449C130.432 36.0582 130.587 37.4126 130.884 38.1379C127.668 39.4876 123.006 39.2101 120.42 41.6803C118.874 43.158 118.505 45.2012 118.472 47.2377C119.856 45.5287 121.372 44.1439 123.641 43.7647C125.934 43.3813 128.363 43.8248 130.244 45.2242C132.264 46.7279 133.388 48.9078 133.726 51.3769C134.113 54.2145 133.406 56.8905 131.665 59.1569C130.404 60.5562 128.937 61.5903 127.089 62.0428C124.75 62.6166 122.079 62.3193 120.017 61.04C117.666 59.5795 116.313 57.1696 115.726 54.5184C114.849 50.5566 115.021 44.6358 117.305 41.1193C119.318 38.017 122.359 37.4028 125.738 36.5993C127.141 36.2655 128.525 35.8549 129.932 35.5449ZM124.585 59.6499C126.577 59.3552 128.058 58.8779 129.296 57.1669C130.51 55.4899 130.902 53.3721 130.525 51.356C130.222 49.7291 129.365 48.241 127.968 47.3204C127.113 46.7548 126.12 46.4307 125.095 46.3822C123.158 46.5988 121.564 47.0002 120.274 48.5983C119.064 50.0989 118.546 52.1254 118.814 54.0268C119.058 55.7612 120.006 57.4304 121.43 58.4645C122.393 59.1635 123.427 59.4699 124.585 59.6499Z" fill="white"/>
<path d="M86.36 36.7794C87.492 36.6658 88.6698 36.7202 89.8084 36.7122C89.6548 45.0477 89.8381 53.4075 89.7903 61.747L86.7885 61.717L86.7932 46.9714C86.7849 45.282 86.7497 43.5891 86.8533 41.902C84.0868 47.0113 81.5909 52.3447 78.5609 57.2988L76.6104 57.2884C73.6259 52.3956 71.1422 47.1232 68.3824 42.0954C68.4904 44.4011 68.4174 46.7424 68.4189 49.0517L68.4256 61.7483C67.4248 61.7222 66.428 61.7874 65.426 61.7405L65.4274 46.5517C65.4295 43.2867 65.3656 40.0012 65.5445 36.7407L68.8843 36.7425C69.8337 38.3702 70.6405 40.1144 71.503 41.7912C73.504 45.6808 75.4846 49.6127 77.6432 53.4166C80.8157 48.0374 83.3271 42.2432 86.36 36.7794Z" fill="white"/>
<path d="M101.799 43.2363C102.257 43.2118 102.715 43.1945 103.174 43.1843C105.577 43.1449 107.972 43.8006 109.704 45.542C112.022 47.8716 112.253 50.8074 112.253 53.9098C107.251 53.9737 102.241 53.9059 97.2375 53.9281C97.3918 54.7535 97.5471 55.5438 97.9399 56.2975C98.722 57.805 100.079 58.9331 101.704 59.426C103.649 60.0154 105.606 59.6699 107.355 58.7049C107.942 58.3058 108.479 57.839 109.025 57.3878C109.811 57.8363 110.605 58.2106 111.435 58.5692C110.201 60.2345 108.609 61.4486 106.595 62.0002C104.016 62.7057 100.873 62.4293 98.5503 61.0626C96.5135 59.8616 95.0522 57.8846 94.502 55.5855C93.8158 52.8209 94.1991 49.7971 95.6991 47.3654C97.1451 45.0214 99.1741 43.8632 101.799 43.2363ZM97.2696 51.5729C99.7475 51.5534 102.225 51.5455 104.703 51.5521L109.335 51.5547C108.883 49.6539 108.431 47.8918 106.662 46.7791C105.368 45.9648 103.799 45.8408 102.309 45.9649C100.701 46.3363 99.3448 47.0684 98.4268 48.4861C97.8053 49.446 97.5298 50.4775 97.2696 51.5729Z" fill="white"/>
<path d="M164.031 43.2302C164.48 43.2078 164.929 43.1928 165.379 43.1853C167.776 43.1593 170.171 43.8704 171.882 45.6193C174.133 47.9213 174.34 50.859 174.33 53.8975C169.348 53.9731 164.355 53.9131 159.371 53.9249C159.438 54.8338 159.597 55.6162 160.022 56.4339C160.807 57.9479 162.11 58.9494 163.736 59.4254C165.911 60.0644 167.891 59.5923 169.813 58.5256C170.282 58.2022 170.7 57.8071 171.126 57.4289C171.916 57.854 172.717 58.1983 173.549 58.5295C172.246 60.2418 170.625 61.4832 168.52 62.0166C165.903 62.6803 162.899 62.4261 160.563 61.0164C158.49 59.7645 157.068 57.7014 156.523 55.3515C155.901 52.6677 156.335 49.581 157.835 47.2543C159.335 44.9281 161.386 43.8023 164.031 43.2302ZM159.344 51.5658C161.716 51.5593 164.091 51.5267 166.463 51.5515L171.49 51.5489C170.968 49.5945 170.422 47.6903 168.531 46.6152C167.36 45.9487 165.933 45.8351 164.611 45.9688C163.042 46.2284 161.716 46.8186 160.742 48.1301C159.97 49.1688 159.641 50.3296 159.344 51.5658Z" fill="white"/>
<path d="M215.766 43.4936C218.801 43.3513 221.88 43.4544 224.92 43.4641C224.764 49.5398 224.903 55.6566 224.9 61.7374L221.774 61.7035L221.772 55.4609C220.278 55.4518 218.312 55.1597 216.888 55.4988C216.443 55.6044 216.364 55.8287 216.115 56.1743C215.06 58.0456 213.886 59.8517 212.827 61.7244C211.646 61.7504 210.463 61.7544 209.281 61.7335C210.438 59.5622 212.008 56.7989 213.539 54.9185C213.356 54.8298 213.176 54.7359 212.999 54.6394C211.664 53.9026 210.643 52.7172 210.251 51.2306C209.845 49.6808 210.066 47.912 210.896 46.5359C212.013 44.6795 213.763 43.9658 215.766 43.4936ZM218.972 52.8411C219.895 52.8333 220.837 52.862 221.757 52.7954C221.745 50.6346 221.751 48.4738 221.774 46.3129C219.941 46.3063 218.082 46.2571 216.251 46.3575C215.096 46.7194 214.194 47.1099 213.57 48.2234C213.157 48.9635 213.046 49.9401 213.325 50.7441C213.595 51.5227 214.22 52.0691 214.955 52.4016C216.197 52.9624 217.642 52.8528 218.972 52.8411Z" fill="white"/>
<path d="M140.074 43.6614C144.033 43.5186 148.026 43.6112 151.989 43.6039L151.971 61.7352C150.983 61.7208 149.992 61.6791 149.013 61.8134L148.999 46.4548L147.319 46.5225C145.819 46.4486 144.287 46.5473 142.785 46.5825C142.743 50.2373 142.729 57.8139 140.169 60.5185C138.892 61.8669 137.45 62.0051 135.706 62.0195C135.693 61.0662 135.642 60.1247 135.573 59.174C136.028 59.1323 136.511 59.101 136.954 58.9888C139.71 58.2938 139.758 49.1887 139.827 46.893C139.854 45.9983 139.656 44.3897 140.074 43.6614Z" fill="white"/>
<path d="M204.288 43.5278L204.694 43.5039C204.742 43.5698 204.811 43.6247 204.841 43.7015C204.977 44.0581 204.837 59.8969 204.839 61.7278L202.183 61.746L201.988 61.7069C201.563 60.9388 201.989 45.8455 201.856 43.5639C202.667 43.5739 203.478 43.5467 204.288 43.5278Z" fill="white"/>
<path d="M201.8 36.6908L204.855 36.6816C204.822 37.7654 204.847 38.8502 204.862 39.9341L201.718 39.9578C201.764 38.8693 201.791 37.7802 201.8 36.6908Z" fill="white"/>
</g>
<defs>
<clipPath id="clip0_8265_25409">
<rect width="220.338" height="48.771" fill="white" transform="translate(4.58057 25.7607)"/>
</clipPath>
</defs>
</svg>
