<svg width="25" height="25" viewBox="0 0 25 25" fill="none" xmlns="http://www.w3.org/2000/svg">
<path d="M12.4988 5.26642C14.9032 5.26642 15.1878 5.2771 16.1332 5.31928C17.0123 5.35809 17.4864 5.50545 17.803 5.62862C18.2215 5.7906 18.5235 5.98745 18.8362 6.30015C19.1528 6.6168 19.3458 6.91545 19.5111 7.33389C19.6343 7.65054 19.7816 8.12804 19.8204 9.00373C19.8626 9.9531 19.8733 10.2377 19.8733 12.6387C19.8733 15.0397 19.8626 15.3276 19.8204 16.2736C19.7816 17.1527 19.6343 17.6268 19.5111 17.9435C19.3491 18.3619 19.1528 18.6639 18.8396 18.9766C18.5229 19.2933 18.2243 19.4862 17.8064 19.6516C17.4898 19.7747 17.0117 19.9221 16.1366 19.9609C15.1872 20.0031 14.9026 20.0138 12.5016 20.0138C10.1006 20.0138 9.81266 20.0031 8.86666 19.9609C7.98759 19.9221 7.51346 19.7747 7.19682 19.6516C6.77838 19.4896 6.47635 19.2933 6.16308 18.98C5.84644 18.6634 5.65353 18.3647 5.48817 17.9468C5.365 17.6302 5.21765 17.1521 5.17884 16.277C5.13666 15.3276 5.12597 15.043 5.12597 12.6421C5.12597 10.2411 5.13666 9.9531 5.17884 9.0071C5.21765 8.12803 5.365 7.65391 5.48817 7.33727C5.65015 6.91882 5.847 6.6168 6.15971 6.30353C6.47635 5.98688 6.775 5.79397 7.19344 5.62862C7.51009 5.50545 7.98759 5.35809 8.86328 5.31928C9.80872 5.2771 10.0939 5.26642 12.4982 5.26642H12.4988ZM12.4988 3.64607C10.0556 3.64607 9.75023 3.65676 8.79017 3.69894C7.83405 3.74112 7.17657 3.89579 6.6074 4.11738C6.01348 4.3491 5.51067 4.65506 5.0118 5.15787C4.50899 5.6573 4.20303 6.15955 3.97131 6.75009C3.74972 7.3232 3.59505 7.97674 3.55287 8.93286C3.51069 9.8963 3.5 10.2017 3.5 12.6449C3.5 15.088 3.51069 15.3934 3.55287 16.3535C3.59505 17.3096 3.74972 17.9671 3.97131 18.5363C4.20359 19.1302 4.50899 19.633 5.0118 20.1319C5.51067 20.6307 6.01348 20.9406 6.60402 21.169C7.17713 21.3906 7.83067 21.5452 8.78679 21.5874C9.74629 21.6296 10.0523 21.6403 12.4954 21.6403C14.9386 21.6403 15.2446 21.6296 16.2041 21.5874C17.1602 21.5452 17.8177 21.3906 18.3868 21.169C18.9774 20.9406 19.4802 20.6313 19.9791 20.1319C20.4779 19.6324 20.7878 19.1302 21.0162 18.5396C21.2378 17.9665 21.3924 17.313 21.4346 16.3569C21.4768 15.3974 21.4875 15.0914 21.4875 12.6482C21.4875 10.2051 21.4768 9.89967 21.4346 8.93961C21.3924 7.98349 21.2378 7.32602 21.0162 6.75684C20.7946 6.15898 20.4886 5.65674 19.9864 5.15731C19.4875 4.65844 18.9847 4.34854 18.3941 4.12019C17.821 3.8986 17.1675 3.74393 16.2114 3.70175C15.2485 3.65619 14.9425 3.64551 12.4994 3.64551L12.4988 3.64607Z" fill="#080C09"/>
<path d="M12.4985 8.02246C9.94683 8.02246 7.87598 10.0927 7.87598 12.645C7.87598 15.1973 9.94626 17.2676 12.4985 17.2676C15.0508 17.2676 17.1211 15.1973 17.1211 12.645C17.1211 10.0933 15.0508 8.02246 12.4985 8.02246ZM12.4985 15.6433C10.8428 15.6433 9.50026 14.3008 9.50026 12.645C9.50026 10.9893 10.8428 9.64674 12.4985 9.64674C14.1543 9.64674 15.4968 10.9893 15.4968 12.645C15.4968 14.3008 14.1543 15.6433 12.4985 15.6433Z" fill="#080C09"/>
<path d="M18.3822 7.83906C18.3822 8.43523 17.8991 8.91835 17.3029 8.91835C16.7068 8.91835 16.2236 8.43523 16.2236 7.83906C16.2236 7.24289 16.7068 6.75977 17.3029 6.75977C17.8991 6.75977 18.3822 7.24289 18.3822 7.83906Z" fill="#080C09"/>
</svg>
