<svg width="25" height="25" viewBox="0 0 25 25" fill="none" xmlns="http://www.w3.org/2000/svg">
<path d="M22.093 7.84852C21.9791 7.42592 21.7565 7.04052 21.4474 6.73068C21.1382 6.42085 20.7533 6.19738 20.331 6.08252C18.765 5.65252 12.5 5.64552 12.5 5.64552C12.5 5.64552 6.23599 5.63852 4.66899 6.04952C4.24692 6.16966 3.86282 6.39629 3.55356 6.70765C3.2443 7.01901 3.02028 7.40464 2.90299 7.82752C2.48999 9.39352 2.48599 12.6415 2.48599 12.6415C2.48599 12.6415 2.48199 15.9055 2.89199 17.4555C3.12199 18.3125 3.79699 18.9895 4.65499 19.2205C6.23699 19.6505 12.485 19.6575 12.485 19.6575C12.485 19.6575 18.75 19.6645 20.316 19.2545C20.7385 19.1399 21.1237 18.9169 21.4336 18.6077C21.7436 18.2985 21.9674 17.9138 22.083 17.4915C22.497 15.9265 22.5 12.6795 22.5 12.6795C22.5 12.6795 22.52 9.41452 22.093 7.84852ZM10.496 15.6505L10.501 9.65052L15.708 12.6555L10.496 15.6505Z" fill="white"/>
</svg>
