<svg aria-hidden="true" style="position:absolute;width:0;height:0;overflow:hidden" xmlns="http://www.w3.org/2000/svg">
  <defs>
   <symbol id="icon-down" viewBox="0 0 32 32">
<path stroke-linejoin="miter" stroke-linecap="butt" stroke-miterlimit="4" stroke-width="0.9697" d="M22.901 11.649c0.095-0.095 0.248-0.095 0.343 0l0.343 0.343c0.095 0.095 0.095 0.248 0 0.343l-7.415 7.415c-0.095 0.095-0.248 0.095-0.343 0l-7.415-7.415c-0.095-0.095-0.095-0.248 0-0.343l0.343-0.343c0.095-0.095 0.248-0.095 0.343 0l6.901 6.901 6.901-6.901z"></path>
</symbol>
    <symbol id="icon-facebook" viewBox="0 0 32 32">
      <path d="M28.8 16.576c0-7.112-5.731-12.878-12.8-12.878s-12.8 5.766-12.8 12.878c0 6.428 4.681 11.756 10.8 12.722v-8.999h-3.25v-3.723h3.25v-2.837c0-3.228 1.911-5.010 4.835-5.010 1.401 0 2.865 0.252 2.865 0.252v3.169h-1.614c-1.59 0-2.086 0.993-2.086 2.011v2.416h3.55l-0.567 3.723h-2.983v8.999c6.119-0.966 10.8-6.294 10.8-12.722z"></path>
    </symbol>
    <symbol id="icon-instagram" viewBox="0 0 32 32">
      <path d="M15.998 6.741c3.078 0 3.442 0.014 4.652 0.068 1.125 0.050 1.732 0.238 2.137 0.396 0.536 0.207 0.922 0.459 1.323 0.86 0.405 0.405 0.652 0.788 0.864 1.323 0.158 0.405 0.346 1.017 0.396 2.137 0.054 1.215 0.068 1.579 0.068 4.653s-0.014 3.442-0.068 4.653c-0.050 1.125-0.238 1.732-0.396 2.137-0.207 0.536-0.459 0.922-0.86 1.322-0.405 0.405-0.788 0.652-1.323 0.864-0.405 0.158-1.017 0.346-2.137 0.396-1.215 0.054-1.58 0.068-4.653 0.068s-3.442-0.014-4.653-0.068c-1.125-0.050-1.732-0.238-2.137-0.396-0.536-0.207-0.922-0.459-1.323-0.86-0.405-0.405-0.652-0.788-0.864-1.323-0.158-0.405-0.346-1.017-0.396-2.137-0.054-1.215-0.068-1.58-0.068-4.653s0.014-3.442 0.068-4.653c0.050-1.125 0.238-1.732 0.396-2.137 0.207-0.536 0.459-0.922 0.86-1.323 0.405-0.405 0.788-0.652 1.323-0.864 0.405-0.158 1.017-0.346 2.137-0.396 1.21-0.054 1.575-0.068 4.653-0.068h0.001zM15.998 4.667c-3.127 0-3.518 0.014-4.747 0.068-1.224 0.054-2.065 0.252-2.794 0.536-0.76 0.297-1.404 0.688-2.042 1.332-0.644 0.639-1.035 1.282-1.332 2.038-0.284 0.734-0.482 1.57-0.536 2.794-0.054 1.233-0.068 1.624-0.068 4.751s0.014 3.518 0.068 4.747c0.054 1.224 0.252 2.065 0.536 2.794 0.297 0.76 0.688 1.404 1.332 2.042 0.639 0.638 1.282 1.035 2.038 1.328 0.734 0.284 1.57 0.482 2.794 0.536 1.228 0.054 1.62 0.068 4.747 0.068s3.519-0.014 4.747-0.068c1.224-0.054 2.065-0.252 2.794-0.536 0.756-0.292 1.4-0.688 2.038-1.328s1.035-1.282 1.328-2.038c0.284-0.734 0.482-1.57 0.536-2.794 0.054-1.228 0.068-1.62 0.068-4.747s-0.014-3.518-0.068-4.747c-0.054-1.224-0.252-2.065-0.536-2.794-0.284-0.765-0.675-1.408-1.318-2.047-0.639-0.639-1.282-1.035-2.038-1.327-0.734-0.284-1.57-0.482-2.794-0.536-1.233-0.058-1.624-0.072-4.751-0.072l-0.001 0.001z"></path>
      <path d="M15.998 10.269c-3.266 0-5.917 2.65-5.917 5.917s2.65 5.917 5.917 5.917c3.267 0 5.917-2.65 5.917-5.917s-2.65-5.917-5.917-5.917zM15.998 20.023c-2.119 0-3.838-1.718-3.838-3.838s1.718-3.838 3.838-3.838c2.119 0 3.838 1.718 3.838 3.838s-1.718 3.838-3.838 3.838z"></path>
      <path d="M23.529 10.034c0 0.763-0.618 1.382-1.381 1.382s-1.381-0.618-1.381-1.381 0.619-1.381 1.381-1.381c0.763 0 1.381 0.618 1.381 1.381z"></path>
    </symbol>
    <symbol id="icon-youtube" viewBox="0 0 32 32">
      <path d="M28.279 10.046c-0.146-0.541-0.431-1.034-0.826-1.431s-0.888-0.683-1.429-0.83c-2.004-0.55-10.024-0.559-10.024-0.559s-8.018-0.009-10.024 0.517c-0.54 0.154-1.032 0.444-1.428 0.842s-0.683 0.892-0.833 1.433c-0.529 2.004-0.534 6.162-0.534 6.162s-0.005 4.178 0.52 6.162c0.294 1.097 1.158 1.964 2.257 2.259 2.025 0.55 10.022 0.559 10.022 0.559s8.019 0.009 10.024-0.516c0.541-0.147 1.034-0.432 1.431-0.828s0.683-0.888 0.831-1.429c0.53-2.003 0.534-6.159 0.534-6.159s0.026-4.179-0.521-6.184zM13.435 20.033l0.006-7.68 6.665 3.846-6.671 3.834z"></path>
    <symbol id="icon-left-arrow" viewBox="0 0 32 32">
      <path d="M16.905 22.685l-5.495-5.495h12.27v-2.56h-12.27l5.495-5.495-1.81-1.81-8.585 8.585 8.585 8.585 1.81-1.81z"></path>
    </symbol>
    <symbol id="icon-right-arrow" viewBox="0 0 32 32">
      <path d="M15.095 22.685l1.81 1.81 8.585-8.585-8.585-8.585-1.81 1.81 5.495 5.495h-12.27v2.56h12.27l-5.495 5.495z"></path>
    <symbol id="icon-logo-furniture" viewBox="0 0 159 35">
      <path d="M13.878 0.53c8.419-0.786 15.878 5.407 16.655 13.827s-5.423 15.872-13.844 16.641c-8.408 0.767-15.848-5.422-16.624-13.829s5.406-15.854 13.812-16.638zM16.931 29.378c7.516-0.903 12.875-7.729 11.968-15.244s-7.737-12.87-15.251-11.959c-7.508 0.911-12.857 7.733-11.951 15.241 0.906 7.509 7.725 12.862 15.234 11.962z"></path>
      <path d="M21.288 7.801l1.761-0.012c0.034 5.082 0.037 10.165 0.008 15.248l-1.821 0.023-0.003-9.55-0.008-2.615c-1.017 1.93-2.172 3.786-3.272 5.669-0.697 1.194-1.345 2.563-2.208 3.637-0.206 0.075-0.429 0.081-0.644 0.032-0.070-0.016-0.217-0.071-0.27-0.114-0.465-0.371-4.842-8.060-5.541-9.226 0.179 1.383 0.067 2.891 0.066 4.287l-0.005 7.842-1.862 0.007c0.058-5.074-0.033-10.152 0.015-15.228l2.028 0.011c0.902 1.612 1.869 3.19 2.804 4.783 0.994 1.693 1.961 3.406 3.017 5.061 1.074-1.961 2.275-3.862 3.429-5.778 0.818-1.357 1.591-2.786 2.507-4.078z"></path>
      <path d="M114.522 11.422c0.359-0.024 0.728-0.034 1.088-0.027 1.343 0.024 2.714 0.742 3.633 1.694 1.145 1.186 1.677 2.84 1.639 4.471-0.038 1.66-0.661 3.238-1.883 4.377-1.083 1.009-2.471 1.549-3.955 1.493-1.699-0.064-2.826-0.78-3.966-1.996-0.044 0.696-0.031 1.401-0.038 2.099 0.007 1.386 0.006 2.772-0.006 4.159-0.646 0.064-1.298 0.058-1.943-0.018 0.105-2.146 0.012-4.344 0.013-6.495 0-3.201 0.051-6.41-0.021-9.61l1.923-0.008c-0.038 0.714-0.029 1.435-0.039 2.151 1.042-1.3 1.91-1.927 3.555-2.289zM115.355 21.713c1.195-0.224 2.121-0.712 2.823-1.744 0.686-1.027 0.933-2.286 0.683-3.495-0.214-1.078-0.852-2.096-1.791-2.685-0.739-0.464-1.538-0.591-2.391-0.567-1.185 0.224-2.145 0.646-2.855 1.679-0.669 0.973-0.957 2.358-0.731 3.515 0.214 1.111 0.873 2.086 1.824 2.698 0.759 0.477 1.559 0.614 2.439 0.599z"></path>
      <path d="M78.645 6.601c0.313 0.322 0.411 1.172 0.597 1.627-2.018 0.847-4.943 0.673-6.565 2.222-0.97 0.927-1.202 2.209-1.222 3.487 0.868-1.072 1.82-1.941 3.243-2.179 1.438-0.241 2.963 0.038 4.142 0.916 1.267 0.943 1.973 2.311 2.185 3.86 0.243 1.78-0.2 3.459-1.293 4.881-0.791 0.878-1.712 1.527-2.871 1.811-1.468 0.36-3.143 0.173-4.437-0.629-1.475-0.916-2.324-2.428-2.693-4.092-0.55-2.486-0.442-6.2 0.991-8.406 1.263-1.946 3.171-2.332 5.291-2.836 0.88-0.209 1.748-0.467 2.631-0.662zM75.291 21.724c1.249-0.185 2.179-0.484 2.955-1.558 0.762-1.052 1.008-2.381 0.772-3.646-0.191-1.021-0.728-1.954-1.604-2.532-0.537-0.355-1.159-0.558-1.802-0.589-1.216 0.136-2.216 0.388-3.025 1.39-0.759 0.941-1.084 2.213-0.916 3.406 0.153 1.088 0.748 2.135 1.641 2.784 0.605 0.439 1.253 0.631 1.98 0.744z"></path>
      <path d="M51.308 7.375c0.71-0.071 1.449-0.037 2.164-0.042-0.096 5.23 0.019 10.474-0.011 15.707l-1.883-0.019 0.003-9.251c-0.005-1.060-0.027-2.122 0.038-3.181-1.736 3.206-3.302 6.552-5.203 9.66l-1.224-0.007c-1.872-3.070-3.431-6.378-5.162-9.532 0.068 1.447 0.022 2.915 0.023 4.364l0.004 7.966c-0.628-0.016-1.253 0.025-1.882-0.005l0.001-9.529c0.001-2.048-0.039-4.11 0.073-6.155l2.095 0.001c0.596 1.021 1.102 2.116 1.643 3.168 1.255 2.44 2.498 4.907 3.852 7.294 1.99-3.375 3.566-7.010 5.469-10.438z"></path>
      <path d="M60.994 11.426c0.287-0.015 0.575-0.026 0.863-0.033 1.508-0.025 3.010 0.387 4.097 1.479 1.454 1.461 1.599 3.303 1.599 5.25-3.139 0.040-6.281-0.003-9.421 0.011 0.097 0.518 0.194 1.014 0.441 1.487 0.491 0.946 1.342 1.654 2.362 1.963 1.22 0.37 2.448 0.153 3.545-0.452 0.368-0.25 0.705-0.543 1.048-0.826 0.493 0.281 0.991 0.516 1.512 0.741-0.775 1.045-1.773 1.806-3.037 2.153-1.618 0.443-3.59 0.269-5.047-0.588-1.278-0.754-2.195-1.994-2.54-3.436-0.431-1.735-0.19-3.632 0.751-5.157 0.907-1.471 2.18-2.197 3.827-2.591zM58.153 16.657c1.555-0.012 3.109-0.017 4.664-0.013l2.906 0.002c-0.283-1.193-0.567-2.298-1.677-2.996-0.812-0.511-1.796-0.589-2.731-0.511-1.009 0.233-1.86 0.692-2.436 1.582-0.39 0.602-0.563 1.249-0.726 1.937z"></path>
      <path d="M100.037 11.423c0.282-0.014 0.564-0.023 0.846-0.028 1.504-0.016 3.007 0.43 4.080 1.527 1.412 1.444 1.542 3.287 1.536 5.194-3.125 0.047-6.258 0.010-9.385 0.017 0.042 0.57 0.142 1.061 0.408 1.574 0.493 0.95 1.31 1.578 2.33 1.877 1.365 0.401 2.607 0.105 3.813-0.565 0.295-0.203 0.556-0.451 0.824-0.688 0.496 0.267 0.998 0.483 1.52 0.691-0.817 1.074-1.834 1.853-3.155 2.188-1.642 0.416-3.527 0.257-4.992-0.627-1.301-0.786-2.193-2.080-2.535-3.554-0.39-1.684-0.118-3.62 0.823-5.080s2.228-2.166 3.887-2.525zM97.097 16.653c1.488-0.004 2.978-0.024 4.466-0.009l3.154-0.002c-0.327-1.226-0.67-2.421-1.856-3.095-0.735-0.418-1.63-0.489-2.459-0.406-0.984 0.163-1.816 0.533-2.428 1.356-0.484 0.652-0.691 1.38-0.877 2.156z"></path>
      <path d="M132.498 11.589c1.903-0.089 3.835-0.025 5.742-0.018-0.097 3.812-0.010 7.649-0.012 11.465l-1.962-0.021-0.001-3.917c-0.937-0.006-2.171-0.189-3.064 0.024-0.279 0.066-0.329 0.207-0.485 0.424-0.662 1.174-1.398 2.307-2.062 3.482-0.741 0.016-1.484 0.019-2.225 0.006 0.726-1.362 1.711-3.096 2.671-4.276-0.115-0.056-0.228-0.115-0.339-0.175-0.837-0.462-1.478-1.206-1.723-2.139-0.256-0.972-0.116-2.082 0.403-2.945 0.701-1.165 1.8-1.613 3.057-1.909zM134.509 17.453c0.579-0.005 1.17 0.013 1.747-0.029-0.008-1.356-0.004-2.711 0.010-4.067-1.149-0.004-2.316-0.035-3.465 0.028-0.724 0.227-1.29 0.472-1.682 1.171-0.259 0.464-0.329 1.077-0.154 1.582 0.169 0.488 0.562 0.831 1.023 1.040 0.78 0.352 1.686 0.283 2.52 0.276z"></path>
      <path d="M85.008 11.694c2.484-0.090 4.989-0.031 7.476-0.036l-0.012 11.376c-0.619-0.009-1.241-0.035-1.856 0.049l-0.009-9.636-1.054 0.043c-0.941-0.046-1.902 0.015-2.845 0.038-0.026 2.293-0.035 7.047-1.641 8.743-0.801 0.846-1.706 0.933-2.8 0.942-0.008-0.598-0.040-1.189-0.083-1.785 0.286-0.026 0.588-0.046 0.866-0.116 1.729-0.436 1.759-6.149 1.802-7.589 0.017-0.561-0.107-1.57 0.155-2.027z"></path>
      <path d="M125.296 11.609l0.254-0.015c0.030 0.041 0.074 0.076 0.092 0.124 0.085 0.224-0.002 10.161-0.002 11.31l-1.666 0.011-0.123-0.024c-0.267-0.482 0.001-9.951-0.083-11.383 0.509 0.006 1.018-0.011 1.526-0.023z"></path>
      <path d="M123.735 7.319l1.916-0.006c-0.020 0.68-0.005 1.361 0.005 2.041l-1.973 0.015c0.029-0.683 0.046-1.366 0.052-2.050z"></path>
    </symbol>
    <symbol id="icon-burger" viewBox="0 0 32 32">
      <path d="M4.799 8.001c0-0.424 0.169-0.831 0.469-1.131s0.707-0.469 1.131-0.469h19.2c0.424 0 0.831 0.169 1.131 0.469s0.469 0.707 0.469 1.131-0.169 0.831-0.469 1.131c-0.3 0.3-0.707 0.469-1.131 0.469h-19.2c-0.424 0-0.831-0.169-1.131-0.469s-0.469-0.707-0.469-1.131z"></path>
      <path d="M4.799 16.001c0-0.424 0.169-0.831 0.469-1.131s0.707-0.469 1.131-0.469h19.2c0.424 0 0.831 0.169 1.131 0.469s0.469 0.707 0.469 1.131c0 0.424-0.169 0.831-0.469 1.131s-0.707 0.469-1.131 0.469h-19.2c-0.424 0-0.831-0.169-1.131-0.469s-0.469-0.707-0.469-1.131z"></path>
      <path d="M4.799 24.001c0-0.424 0.169-0.831 0.469-1.131s0.707-0.469 1.131-0.469h19.2c0.424 0 0.831 0.169 1.131 0.469s0.469 0.707 0.469 1.131c0 0.424-0.169 0.831-0.469 1.131s-0.707 0.469-1.131 0.469h-19.2c-0.424 0-0.831-0.169-1.131-0.469s-0.469-0.707-0.469-1.131z"></path>
    </symbol>
    <symbol id="icon-close" viewBox="0 0 32 32">
      <path d="M21.589 8.459l-5.657 5.656-5.656-5.656-1.885 1.885 5.656 5.656-5.656 5.656 1.885 1.885 5.656-5.656 5.657 5.656 1.885-1.885-5.656-5.656 5.656-5.656-1.885-1.885z"></path>
     </symbol>
      <symbol id="icon-x" viewBox="0 0 32 32">
      <path stroke-linejoin="round" stroke-linecap="round" stroke-miterlimit="4" stroke-width="2.3529" d="M24 8l-16 16"></path>
      <path stroke-linejoin="round" stroke-linecap="round" stroke-miterlimit="4" stroke-width="2.3529" d="M8 8l16 16"></path>
    </symbol>
    <symbol id="icon-left-arrow" viewBox="0 0 32 32">
      <path d="M16.943 23.057l-5.724-5.724h12.781v-2.667h-12.781l5.724-5.724-1.885-1.885-8.943 8.943 8.943 8.943 1.885-1.885z"></path>
    </symbol>
    <symbol id="icon-right-arrow" viewBox="0 0 32 32">
      <path d="M15.057 23.057l1.885 1.885 8.943-8.943-8.943-8.943-1.885 1.885 5.724 5.724h-12.781v2.667h12.781l-5.724 5.724z"></path>
    </symbol>
  </defs>
</svg>
