<svg aria-hidden="true" style="position:absolute;width:0;height:0;overflow:hidden" xmlns="http://www.w3.org/2000/svg">
  <defs>
    <symbol id="icon-facebook" viewBox="0 0 32 32">
      <path d="M28.8 16.576c0-7.112-5.731-12.878-12.8-12.878s-12.8 5.766-12.8 12.878c0 6.428 4.681 11.756 10.8 12.722v-8.999h-3.25v-3.723h3.25v-2.837c0-3.228 1.911-5.010 4.835-5.010 1.401 0 2.865 0.252 2.865 0.252v3.169h-1.614c-1.59 0-2.086 0.993-2.086 2.011v2.416h3.55l-0.567 3.723h-2.983v8.999c6.119-0.966 10.8-6.294 10.8-12.722z"></path>
    </symbol>
    <symbol id="icon-instagram" viewBox="0 0 32 32">
      <path d="M15.998 6.741c3.078 0 3.442 0.014 4.652 0.068 1.125 0.050 1.732 0.238 2.137 0.396 0.536 0.207 0.922 0.459 1.323 0.86 0.405 0.405 0.652 0.788 0.864 1.323 0.158 0.405 0.346 1.017 0.396 2.137 0.054 1.215 0.068 1.579 0.068 4.653s-0.014 3.442-0.068 4.653c-0.050 1.125-0.238 1.732-0.396 2.137-0.207 0.536-0.459 0.922-0.86 1.322-0.405 0.405-0.788 0.652-1.323 0.864-0.405 0.158-1.017 0.346-2.137 0.396-1.215 0.054-1.58 0.068-4.653 0.068s-3.442-0.014-4.653-0.068c-1.125-0.050-1.732-0.238-2.137-0.396-0.536-0.207-0.922-0.459-1.323-0.86-0.405-0.405-0.652-0.788-0.864-1.323-0.158-0.405-0.346-1.017-0.396-2.137-0.054-1.215-0.068-1.58-0.068-4.653s0.014-3.442 0.068-4.653c0.050-1.125 0.238-1.732 0.396-2.137 0.207-0.536 0.459-0.922 0.86-1.323 0.405-0.405 0.788-0.652 1.323-0.864 0.405-0.158 1.017-0.346 2.137-0.396 1.21-0.054 1.575-0.068 4.653-0.068h0.001zM15.998 4.667c-3.127 0-3.518 0.014-4.747 0.068-1.224 0.054-2.065 0.252-2.794 0.536-0.76 0.297-1.404 0.688-2.042 1.332-0.644 0.639-1.035 1.282-1.332 2.038-0.284 0.734-0.482 1.57-0.536 2.794-0.054 1.233-0.068 1.624-0.068 4.751s0.014 3.518 0.068 4.747c0.054 1.224 0.252 2.065 0.536 2.794 0.297 0.76 0.688 1.404 1.332 2.042 0.639 0.638 1.282 1.035 2.038 1.328 0.734 0.284 1.57 0.482 2.794 0.536 1.228 0.054 1.62 0.068 4.747 0.068s3.519-0.014 4.747-0.068c1.224-0.054 2.065-0.252 2.794-0.536 0.756-0.292 1.4-0.688 2.038-1.328s1.035-1.282 1.328-2.038c0.284-0.734 0.482-1.57 0.536-2.794 0.054-1.228 0.068-1.62 0.068-4.747s-0.014-3.518-0.068-4.747c-0.054-1.224-0.252-2.065-0.536-2.794-0.284-0.765-0.675-1.408-1.318-2.047-0.639-0.639-1.282-1.035-2.038-1.327-0.734-0.284-1.57-0.482-2.794-0.536-1.233-0.058-1.624-0.072-4.751-0.072l-0.001 0.001z"></path>
      <path d="M15.998 10.269c-3.266 0-5.917 2.65-5.917 5.917s2.65 5.917 5.917 5.917c3.267 0 5.917-2.65 5.917-5.917s-2.65-5.917-5.917-5.917zM15.998 20.023c-2.119 0-3.838-1.718-3.838-3.838s1.718-3.838 3.838-3.838c2.119 0 3.838 1.718 3.838 3.838s-1.718 3.838-3.838 3.838z"></path>
      <path d="M23.529 10.034c0 0.763-0.618 1.382-1.381 1.382s-1.381-0.618-1.381-1.381 0.619-1.381 1.381-1.381c0.763 0 1.381 0.618 1.381 1.381z"></path>
    </symbol>
    <symbol id="icon-youtube" viewBox="0 0 32 32">
      <path d="M28.279 10.046c-0.146-0.541-0.431-1.034-0.826-1.431s-0.888-0.683-1.429-0.83c-2.004-0.55-10.024-0.559-10.024-0.559s-8.018-0.009-10.024 0.517c-0.54 0.154-1.032 0.444-1.428 0.842s-0.683 0.892-0.833 1.433c-0.529 2.004-0.534 6.162-0.534 6.162s-0.005 4.178 0.52 6.162c0.294 1.097 1.158 1.964 2.257 2.259 2.025 0.55 10.022 0.559 10.022 0.559s8.019 0.009 10.024-0.516c0.541-0.147 1.034-0.432 1.431-0.828s0.683-0.888 0.831-1.429c0.53-2.003 0.534-6.159 0.534-6.159s0.026-4.179-0.521-6.184zM13.435 20.033l0.006-7.68 6.665 3.846-6.671 3.834z"></path>
    </symbol>
  </defs>
</svg>